PathFileType	4	(X/Y/Z)	8_2_92_p1_0-201.trc
DataRate	CameraRate	NumFrames	NumMarkers	Units	OrigDataRate	OrigDataStartFrame	OrigNumFrames
59.0	59.0	7	27	m	59.0	75	202
Frame#	Time	RHip			RKnee			RAnkle			RBigToe			RSmallToe			RHeel			LHip			LKnee			LAnkle			LBigToe			LSmallToe			LHeel			Neck			Head			Nose			RShoulder			RElbow			RWrist			RThumb			RIndex			RPinky			LShoulder			LElbow			LWrist			LThumb			LIndex			LPinky			
		X1	Y1	Z1	X2	Y2	Z2	X3	Y3	Z3	X4	Y4	Z4	X5	Y5	Z5	X6	Y6	Z6	X7	Y7	Z7	X8	Y8	Z8	X9	Y9	Z9	X10	Y10	Z10	X11	Y11	Z11	X12	Y12	Z12	X13	Y13	Z13	X14	Y14	Z14	X15	Y15	Z15	X16	Y16	Z16	X17	Y17	Z17	X18	Y18	Z18	X19	Y19	Z19	X20	Y20	Z20	X21	Y21	Z21	X22	Y22	Z22	X23	Y23	Z23	X24	Y24	Z24	X25	Y25	Z25	X26	Y26	Z26	X27	Y27	Z27	
75	1.271186440677966	0.24945465637184444	0.505566267038521	0.8017063458148623	0.2686199263938311	0.7211472304284687	1.3133768340696332	0.2353949926324119	0.9267510102153171	1.7330510225880134	0.20887697166742575	0.7024109460666765	1.7886159639312604	0.27154512729995806	0.7436942781537067	1.7901832474365893	0.21496554726034414	0.9657895197067423	1.7622477214449825	0.03946915527051079	0.5478281256004419	0.8093941237769042	0.036102138535601985	0.7165353006088263	1.2954891389570484	0.037207607127158045	0.8694766913211028	1.7068726873555216	0.045319572841733796	0.7462201402861428	1.8011428182054672	-0.010657519363128405	0.7186084530567656	1.7499468391440112	0.0644231339019032	0.9542106067175208	1.7606406216099129	0.14959132696703326	0.4394303393104005	0.22830492297224853	0.1615180869728568	0.2667682693635699	0.015030382823112875	0.1546728128014429	0.2611966291598443	0.1572496045155009	0.3221152081518657	0.4165454708537278	0.3377760406802708	0.3548642055110276	0.5116561152735595	0.6261175905224896	0.3656327809424081	0.4728445376643789	0.897708912164181	0.3230625687432472	0.4864226470521795	1.030719933237365	0.3467354585853636	0.44915934549276293	1.0512324371967445	0.3680079339107807	0.5402577609637318	1.0569554292886205	-0.011370660311948007	0.4986459489092648	0.32928001088361536	-0.05486001030813924	0.5449783200964405	0.6055484081133494	-0.11150469678247675	0.4903979151969432	0.8571092684565329	-0.09456433002688923	0.4997255947448363	0.9865081497134264	-0.12358980907474161	0.4964417231299958	1.0088522418346364	-0.13838128075743714	0.5205332169810687	1.0057288927589259
76	1.2881355932203389	0.24946799149681062	0.5052135298437453	0.8018021620185652	0.2686221393529465	0.720912420579561	1.313348288228539	0.23122987147761276	0.9109149353578192	1.7280256107957417	0.20883381548308272	0.7022103738657882	1.7883081993595227	0.2710404961438632	0.7721193970768699	1.8005652987902137	0.21495143390770605	0.9660224683467746	1.7623738994097742	0.0394410157682277	0.5477613768594956	0.8094076177400514	0.036039800656053965	0.7165589255123893	1.2955519203549182	0.03591928621966644	0.871007724075677	1.7119198053958309	0.04531904337639421	0.7458771610513504	1.800959704178851	-0.010599275376479927	0.7183610187944429	1.749757086003105	0.06442424731228012	0.9542543546451477	1.7606696059080977	0.14957047579168567	0.4395790005498688	0.2282694922080049	0.15855088566827036	0.2558035907829163	0.017179235379842867	0.15457003246201614	0.26132949355779744	0.15725837882135538	0.32215133607319263	0.4166627137570238	0.3378158407173477	0.3588345997984067	0.5234843435312997	0.6264579039098287	0.36551895623301284	0.47285382679576476	0.8976172555547172	0.3197229777016711	0.4999862531655144	1.0277009376343194	0.3430045557298843	0.46296959821240175	1.0533857436984686	0.367953996337808	0.5392938233579486	1.0527616462079983	-0.008597272725645554	0.512021337647445	0.3281195382714501	-0.05476533007708634	0.5449229167036133	0.6093931372148029	-0.11353725029979415	0.4790236282781677	0.8639277284913623	-0.09499913809608082	0.5024813121161628	0.9908147164660132	-0.12390594031091241	0.49650497862834225	1.0091832483151366	-0.13877966232016542	0.5204714169500523	1.0059911853807681
77	1.305084745762712	0.24949385638729116	0.5051647798139256	0.8017824955311125	0.268571431201424	0.7210458153086292	1.3133222968696623	0.2344405805313	0.9236708540985896	1.7271591963990802	0.208883165241073	0.7028859704492548	1.7886794270966024	0.27156222582879935	0.773957779628403	1.8014616672064105	0.21509206018808924	0.9662429795382177	1.761700763221609	0.03946612310230028	0.5478542356503645	0.809415981905408	0.03611194310267658	0.7166036005617598	1.295366150732515	0.034107122279809936	0.8539825794704416	1.7015250432252162	0.04546930458192556	0.7461988061484125	1.8011696263027557	-0.010560499795854118	0.7189239046309313	1.7501173869334574	0.0670580425621212	0.9540220656758925	1.7520358312733388	0.14956917997768102	0.43962448458034514	0.22832433035291191	0.1549807692691041	0.26631440010742435	0.014932659068339692	0.1544489530795968	0.2614736898352265	0.15726421694889536	0.322203316328742	0.4166069362871086	0.33769852240756654	0.3589301337689287	0.5236673527064456	0.6262924605589265	0.3686092224525909	0.45798695438139625	0.895942538397568	0.3162096981007415	0.4867507046696525	1.0301214227517217	0.342386175490289	0.4630969651496367	1.0535802157972538	0.36697877486724795	0.5392915107464575	1.0556962587671332	-0.008490369047052722	0.511951248004657	0.33182589855177164	-0.054734768597527926	0.5448181071509343	0.6094397792222482	-0.1143236156041933	0.47973935841001514	0.8678682337445782	-0.0948523024048269	0.5019693360675025	0.9907169496033655	-0.12557648039232702	0.4846475068357461	1.0073663508932929	-0.1387760432833561	0.5201593905443879	1.0059513443296406
78	1.3220338983050848	0.24575682951971808	0.49233951167729906	0.8008939705667599	0.26855256288341256	0.7209543512152837	1.3132696558097012	0.23443455780481043	0.9236703040583976	1.7270954485468406	0.20895960648296236	0.7028061238076924	1.7888976143460837	0.2719358954112715	0.7753198527250424	1.8021685648659178	0.21504180266236314	0.9660479521126721	1.7617779589200402	0.03943940378235535	0.5476478609863371	0.8094747852131279	0.033224218696518246	0.7031124639644144	1.2926222822269824	0.03733311928490968	0.869393045932298	1.7068299344039568	0.04552800174457826	0.7456183021433236	1.800943185488419	-0.01061697036310462	0.7186775788565748	1.7501557441635367	0.06451147508340001	0.9542324755424806	1.7607969259018754	0.14954595391424275	0.4396838291310765	0.22830742213048896	0.15483858372697162	0.26808428264919354	0.01803325022183358	0.15440750346988835	0.26162349926971223	0.1572897727522094	0.3183274121785623	0.4055661251076733	0.33865028197072233	0.35893264175402495	0.5235955807617535	0.6263969054632946	0.3684651665871968	0.4580085356760575	0.8958616811118403	0.3159825478504224	0.48713585355303063	1.0256675907856894	0.33815162215059047	0.47673125194800864	1.058711350557275	0.3635763510984715	0.5266683894411243	1.0501295423003048	-0.008452506735964654	0.5120509208702447	0.3318856056540976	-0.05467818304367544	0.5449870766137208	0.609472369331807	-0.1142501849407801	0.4791722000001366	0.8715487655247035	-0.09466613304187704	0.5011661619216108	0.9906966246199976	-0.12558168045523535	0.48421882787836834	1.0072952812021294	-0.13932364206002584	0.5231734578025913	1.0131229712405474
79	1.3389830508474576	0.2456871506080084	0.4927033114665429	0.8008014388355965	0.26854898931875393	0.7207969896483121	1.3131866047749734	0.23445917286046605	0.9236240869760431	1.7272188698679807	0.20903700059424865	0.7027195946853944	1.788943795244251	0.27586994287347605	0.757717998678675	1.795788064740864	0.21866612203314237	0.9673578622861695	1.7622578683600023	0.039478121215109414	0.5478109463260376	0.8092388964334902	0.03615211915938952	0.7168033142845489	1.295516732214247	0.03596684664878418	0.8709913863384869	1.712040939672684	0.045518769763827176	0.7456345221541467	1.8009716916600427	-0.010634670824521008	0.7186711890989125	1.750231148132528	0.06441372896661804	0.9541988850565507	1.7608463966176262	0.1495252117308916	0.43972619628050647	0.2282972820813299	0.1512941129438171	0.2787253183015733	0.01580561782216192	0.1542990929535271	0.2616416674329608	0.15730312503582225	0.322196321417992	0.41655183357066516	0.3377962921834066	0.3589732139211178	0.5237634529913959	0.6264289925261518	0.36849689691046705	0.4581258737825535	0.8959389616535866	0.3123604018430966	0.474056629915158	1.0234435393520744	0.3342432698728027	0.463595044600021	1.0566876808193917	0.3633798992422128	0.5252326056015783	1.05003484373897	-0.0084114840213618	0.5121722209540145	0.33194773513797077	-0.05464656877208869	0.5447782365464037	0.6093811611534773	-0.11422682260470847	0.4790998140796313	0.8714961127666144	-0.09480865613414632	0.5014335494824157	0.9907158767634912	-0.12557171075127327	0.4842798153156041	1.007332332258894	-0.13849959543993867	0.5219897395429843	1.0100676137378928
80	1.3559322033898304	0.24570355308787725	0.4924220066100091	0.8007596265614619	0.2685354484153112	0.7209205089301682	1.3133241334158008	0.23446651194127927	0.9237088960679868	1.7271620298584665	0.2089767552509919	0.7025997998618887	1.7887229720880897	0.27172634367627346	0.773972340396884	1.8016688638338765	0.21874895611582726	0.9674501362713306	1.7621802278472039	0.03952442415751881	0.5477057941200468	0.8094215562085724	0.036137184713903786	0.7168628810998168	1.2956878876780968	0.03597647059849594	0.8710546830619138	1.7120698613900527	0.04554010437859868	0.7456666390564807	1.8009711495577032	-0.010681096791546624	0.7185881501346255	1.7501733144526215	0.0644414151754837	0.9542585837305664	1.760795966017502	0.1494964567731942	0.4396232011574206	0.22824721796609043	0.15126364597504713	0.2786691734942172	0.015730776849653207	0.15431724899247348	0.2616724091593407	0.1572654284447615	0.318347328085231	0.4055526071520336	0.33869723666843105	0.35887256498469156	0.5234987136881596	0.6263975724603711	0.36517882813363783	0.47146799221275354	0.8974414545202393	0.30825596245439935	0.46268343542174634	1.0247727437730614	0.3340983304498691	0.46294509049342997	1.0564927433691678	0.36211873491333735	0.5254572214759632	1.0529155966174002	-0.008480266413921802	0.5120846591411858	0.3320017044244472	-0.05451730759386338	0.5444953954820229	0.6093821097052337	-0.11416929961712306	0.47893394031521835	0.8714416586352595	-0.09485151659134429	0.5012974889134164	0.9905969445650411	-0.12561091874895106	0.4845297225469541	1.007343171492849	-0.1387355396048286	0.5196967831761202	1.0059510053013152
81	1.3728813559322033	0.2414455136898677	0.4915519117957087	0.8006020578667634	0.26857201282647564	0.7206384199494245	1.313220151939923	0.23445661092893944	0.923738607698234	1.7270406704136276	0.2089957549571597	0.7029222971097081	1.7890023899273162	0.27204442214669716	0.7753447243556831	1.802310173735762	0.21862219312678682	0.9681883850023281	1.759260660881613	0.03953864568605519	0.5478833372108506	0.8093739224012926	0.03624062752800131	0.7166283111787762	1.2954595870541297	0.03733150465713415	0.869376365487002	1.706862305681424	0.04549257825272964	0.7458844156444457	1.8010710926670315	-0.009876260853888218	0.7219766487400077	1.7555233247119026	0.06814259109234944	0.9573690909069577	1.75808883393346	0.14949580144417315	0.4396245539830759	0.22814742948028732	0.15121170940425768	0.2786933003226203	0.015695257703903117	0.15432097377875997	0.2616988518311022	0.15722165869257212	0.32221868044795166	0.4165209390032157	0.3377656756678179	0.3589314200561002	0.5235936080820804	0.6263704403044783	0.3683104519637565	0.4573685539034157	0.8958741821609038	0.30822656075600147	0.4617877165701663	1.0291357612916685	0.3336917060648028	0.46284905503705065	1.0565849238185099	0.36084902369799365	0.5264593955460012	1.051942793371225	-0.008463498533654176	0.5118999627134633	0.3318867914941739	-0.054636160612939945	0.5448442738581998	0.6057349522690723	-0.11409512548395792	0.47884223240872786	0.8715783878666853	-0.09450693392730607	0.500676161129438	0.9904816413300948	-0.12542622589764174	0.4841385315506081	1.007241365145623	-0.13324450741216512	0.5060726043621436	1.0037114823416717
